<svg xmlns="http://www.w3.org/2000/svg" version="1.1" xmlns:xlink="http://www.w3.org/1999/xlink" xmlns:svgjs="http://svgjs.com/svgjs" viewBox="0 0 24 24" height="24" width="24"><title>read email circle (From Streamline App : https://app.streamlineicons.com)</title><g transform="matrix(1,0,0,1,0,0)"><path d="M 12,0.5c6.351,0,11.5,5.149,11.5,11.5S18.351,23.5,12,23.5S0.5,18.351,0.5,12S5.649,0.5,12,0.5z " stroke="#ffffff" fill="none" stroke-width="1" stroke-linecap="round" stroke-linejoin="round"></path><path d="M 18.5,9v6.5 c0,0.552-0.448,1-1,1h-11c-0.552,0-1-0.448-1-1V9 " stroke="#ffffff" fill="none" stroke-width="1" stroke-linecap="round" stroke-linejoin="round"></path><path d="M 18.5,9V8.5c0-0.552-0.448-1-1-1h-11c-0.552,0-1,0.448-1,1V9l5.705,3.253 c0.486,0.304,1.104,0.304,1.59,0L18.5,9z" stroke="#ffffff" fill="none" stroke-width="1" stroke-linecap="round" stroke-linejoin="round"></path></g></svg>