<svg xmlns="http://www.w3.org/2000/svg" version="1.1" xmlns:xlink="http://www.w3.org/1999/xlink" xmlns:svgjs="http://svgjs.com/svgjs" viewBox="0 0 24 24" height="24" width="24"><title>Exported from Streamline App (https://app.streamlineicons.com)</title><g transform="matrix(1,0,0,1,0,0)"><path d="M 12,0.5C5.649,0.494,0.495,5.638,0.489,11.989c-0.005,4.959,3.17,9.362,7.876,10.925 c0.574,0.1,0.756-0.237,0.756-0.541c0-0.275,0.006-1.037,0-2c-3.2,0.694-3.861-1.515-3.861-1.515 c-0.211-0.695-0.664-1.292-1.276-1.682c-1.044-0.714,0.078-0.7,0.078-0.7c0.739,0.101,1.389,0.538,1.762,1.184 c0.65,1.185,2.139,1.619,3.324,0.968c0.007-0.004,0.015-0.008,0.022-0.012c0.053-0.581,0.312-1.125,0.73-1.532 c-2.553-0.292-5.238-1.278-5.238-5.686C4.646,10.255,5.07,9.15,5.847,8.312C5.495,7.32,5.535,6.232,5.959,5.269 c0,0,0.967-0.309,3.162,1.18c1.885-0.517,3.875-0.517,5.76,0c2.2-1.488,3.159-1.18,3.159-1.18c0.424,0.963,0.465,2.051,0.114,3.043 c0.777,0.839,1.201,1.945,1.183,3.088c0,4.42-2.689,5.391-5.251,5.674c0.557,0.559,0.844,1.333,0.787,2.12v3.184 c0,0.307,0.186,0.647,0.77,0.536c6.028-2.002,9.291-8.51,7.29-14.538C21.369,3.667,16.962,0.492,12,0.5z" stroke="#fff" fill="none" stroke-width="1" stroke-linecap="round" stroke-linejoin="round"></path></g></svg>