<svg xmlns="http://www.w3.org/2000/svg" version="1.1" xmlns:xlink="http://www.w3.org/1999/xlink" xmlns:svgjs="http://svgjs.com/svgjs" viewBox="0 0 24 24" height="24" width="24"><title>Exported from Streamline App (https://app.streamlineicons.com)</title><g transform="matrix(1,0,0,1,0,0)"><path d="M 7.5,6v15.5C7.5,21.776,7.276,22,7,22c-0.078,0-0.154-0.018-0.224-0.053l-6-3.309 C0.607,18.553,0.5,18.38,0.5,18.191V3.309c-0.001-0.276,0.223-0.5,0.499-0.501c0.078,0,0.155,0.018,0.225,0.053L7.5,6z " stroke="#fff" fill="none" stroke-width="1" stroke-linecap="round" stroke-linejoin="round"></path><path d="M 16,18 L7.5,6 " stroke="#fff" fill="none" stroke-width="1" stroke-linecap="round" stroke-linejoin="round"></path><path d="M 23.444,6.089l-1.819,2.91l-5.878,9.405 " stroke="#fff" fill="none" stroke-width="1" stroke-linecap="round" stroke-linejoin="round"></path><path d="M 7.5,14.248l15.282,7.7c0.249,0.12,0.548,0.017,0.668-0.232 c0.033-0.068,0.05-0.143,0.05-0.218V6.318c0-0.194-0.113-0.371-0.289-0.453l-6.827-3.186c-0.221-0.104-0.485-0.032-0.624,0.169 l-5.168,7.517" stroke="#fff" fill="none" stroke-width="1" stroke-linecap="round" stroke-linejoin="round"></path></g></svg>